<svg xmlns="http://www.w3.org/2000/svg" height="20" width="20" viewBox="0 0 20 20"><title>gear 2</title><g fill="#ffffff" class="nc-icon-wrapper"><path d="M16.1 9.16h-5.63l-2.81-4.87a0.83 0.83 0 1 0-1.44 0.83l2.81 4.87-2.81 4.87a0.83 0.83 0 0 0 1.44 0.83l2.81-4.87h5.63a0.83 0.83 0 0 0 0-1.66z" fill="#ffffff" data-color="color-2"></path><path d="M18.04 9.16h-1.17a6.9 6.9 0 0 0-0.5-1.89l1.01-0.58a0.83 0.83 0 1 0-0.84-1.44l-1.01 0.58a6.97 6.97 0 0 0-1.38-1.38l0.59-1.01a0.83 0.83 0 0 0-1.45-0.83l-0.58 1a6.86 6.86 0 0 0-1.89-0.5v-1.17a0.83 0.83 0 0 0-1.66 0v1.17a6.9 6.9 0 0 0-1.89 0.5l-0.58-1.01a0.83 0.83 0 1 0-1.44 0.84l0.58 1.01a6.94 6.94 0 0 0-1.38 1.38l-1.01-0.58a0.83 0.83 0 1 0-0.83 1.44l1 0.58a6.9 6.9 0 0 0-0.5 1.89h-1.17a0.83 0.83 0 0 0 0 1.66h1.17c0.08 0.66 0.25 1.3 0.5 1.89l-1.01 0.58a0.83 0.83 0 1 0 0.84 1.44l1.01-0.58c0.39 0.52 0.86 0.99 1.38 1.38l-0.58 1.01a0.83 0.83 0 0 0 1.44 0.83l0.58-1a6.86 6.86 0 0 0 1.89 0.5v1.17a0.83 0.83 0 0 0 1.66 0v-1.17a6.9 6.9 0 0 0 1.89-0.5l0.58 1a0.83 0.83 0 1 0 1.44-0.83l-0.58-1.01a6.94 6.94 0 0 0 1.38-1.38l1.01 0.58a0.83 0.83 0 1 0 0.84-1.44l-1.01-0.58a6.9 6.9 0 0 0 0.5-1.89h1.17a0.83 0.83 0 0 0 0-1.66z m-8.05 6.1c-2.91 0-5.27-2.37-5.27-5.27s2.37-5.27 5.27-5.27 5.27 2.37 5.27 5.27-2.37 5.27-5.27 5.27z" fill="#ffffff"></path></g></svg>